<svg width="24.252075" height="30.661942" viewBox="0 0 24.2521 30.6619" fill="none" xmlns="http://www.w3.org/2000/svg" xmlns:xlink="http://www.w3.org/1999/xlink">
	<desc>
			Created with Pixso.
	</desc>
	<defs/>
	<path id="Vector" d="M14.1599 12.2187C14.0062 11.354 13.2079 10.7727 12.3639 10.9227C11.5256 11.0717 10.9723 11.9026 11.1244 12.7582L11.9661 17.4937L10.9542 17.6735L9.18262 7.70563C9.0271 6.8306 8.22729 6.24098 7.3833 6.39099C6.54504 6.53998 5.98987 7.36063 6.14709 8.24513L8.06775 19.0515C5.57434 17.1107 2.38086 15.0578 1.46545 16.4302C0.569458 17.7737 3.96631 20.433 9.1532 26.6424C11.4902 29.4401 14.1296 31.1926 17.934 30.517C22.125 29.7721 24.8959 25.6418 24.1227 21.2917L22.6306 12.8967C22.4753 12.023 21.6758 11.4344 20.8318 11.5844C19.9935 11.7334 19.4403 12.5646 19.5952 13.4362L20.0607 16.055L19.0488 16.2348L18.3939 12.5499C18.2401 11.685 17.4419 11.1035 16.5978 11.2536C15.7595 11.4025 15.2037 12.2191 15.3584 13.0894L15.8267 15.7242L14.8148 15.904L14.1599 12.2187Z" fill="#FFFFFF" fill-opacity="1.000000" fill-rule="evenodd"/>
	<path id="Vector" d="M6.76855 0L7.51526 4.20084L6.50342 4.38066L5.75684 0.17984L6.76855 0ZM10.0405 4.93738L10.8224 5.64038L13.4977 2.43774L12.7161 1.73474L10.0405 4.93738ZM4.3866 5.94228L3.8949 6.87161L0.279663 4.78697L0.771362 3.85764L4.3866 5.94228ZM16.0018 8.44786L15.9561 9.51161L11.8446 9.26753L11.8904 8.20378L15.9999 8.44774L16.0018 8.44786ZM4.18506 10.6289L3.77563 9.64604L0 11.2919L0.409424 12.2748L4.18506 10.6289Z" fill="#1986EC" fill-opacity="1.000000" fill-rule="evenodd"/>
</svg>
